<svg width="200" height="200" viewBox="0 0 200 200" fill="none" xmlns="http://www.w3.org/2000/svg">
<rect width="200" height="200" fill="white"/>
<path d="M90 28C90 43.464 77.6878 56 62.5 56C47.3122 56 35 43.464 35 28C35 12.536 47.3122 0 62.5 0C77.6878 0 90 12.536 90 28Z" fill="#453D75"/>
<path d="M156 28C156 43.464 143.464 56 128 56C112.536 56 100 43.464 100 28C100 12.536 112.536 0 128 0C143.464 0 156 12.536 156 28Z" fill="#453D75"/>
<rect width="32.9435" height="59.3091" transform="matrix(0.942818 0.333308 -0.351004 0.936374 80.3097 83.6666)" fill="#453D75"/>
<path d="M139.026 165.45C92.1115 214.859 29.2115 215.949 60.3004 138L90.9825 149.004C90.9825 165.511 128.138 167.227 160 143.604L139.026 165.45Z" fill="#453D75"/>
<path d="M45 119L51.25 77.8052L145 67C139.697 83.2078 122.33 95.0147 76.25 104.143C62.6136 106.844 53.5227 112.472 45 119Z" fill="#453D75"/>
</svg>
