<svg width="145" height="145" fill="none" xmlns="http://www.w3.org/2000/svg">
  <rect x="1" width="140" height="145" fill="#fff" />

  <g clip-path="url(#prefix__clip0_0_1)">
    <path
      d="M-28 73.667v98.666h217.333V-25H-28v98.667zm79.467-22.4c10.8 15.6 20 28.933 20.533 29.466.533.534 10.133-12.133 21.467-28.266 11.2-16.267 20.8-28.934 21.333-28.4.4.533 3.867 21.6 7.733 46.933 3.867 25.333 7.334 48 7.734 50.267l.666 4.4h-12.8c-14.933 0-12.933 3.333-16.4-27.2l-2.4-21.2L86.8 96.2c-6.933 10.4-13.067 19.2-13.6 19.6-.533.267-6.533-7.867-13.333-18.267C50 82.467 47.2 79.133 46.533 81.133c-.533 1.467-2 12-3.333 23.6l-2.267 20.934h-13.2c-12.933 0-13.066 0-12.4-3.067.267-1.6 3.6-23.067 7.334-47.6 7.066-46.933 8-52 8.666-52 .267 0 9.334 12.8 20.134 28.267z"
      fill="#212A3B" />
  </g>
  <defs>
    <clipPath id="prefix__clip0_0_1">
      <path fill="#fff" transform="translate(-28 -17)" d="M0 0h217.333v197.333H0z" />
    </clipPath>
  </defs>
</svg>
