<svg width="333" height="333" viewBox="0 0 333 333" fill="none" xmlns="http://www.w3.org/2000/svg">
<path d="M332 166C332 257.127 258.127 331 167 331C75.873 331 2 257.127 2 166C2 74.873 75.873 1 167 1C258.127 1 332 74.873 332 166Z" fill="white"/>
<path fill-rule="evenodd" clip-rule="evenodd" d="M0 166.5C0 258.455 74.5446 333 166.5 333C258.455 333 333 258.455 333 166.5C333 74.5446 258.455 0 166.5 0C74.5446 0 0 74.5446 0 166.5ZM150.768 155.829C143.85 145.923 130.203 126.383 117.6 108.267C102.667 86.9333 89.8667 69.3333 89.3333 69.3333C87.7333 69.3333 86.2667 77.0667 78.6667 127.333C76.3894 142.018 73.4183 161.513 70.6524 179.661C68.722 192.327 66.8916 204.338 65.4667 213.6C61.2 241.333 59.6 255.067 60.5333 256C61.3333 256.8 70.9333 257.333 84.2667 257.333H106.533L107.2 252.933C107.6 250.667 109.467 235.067 111.333 218.4C114.933 186.133 116.4 176.4 118 174.933C119.2 173.6 123.467 179.067 137.6 200C155.6 226.8 164.267 238.667 165.867 238.667C166.8 238.667 177.867 223.067 190.667 203.867C203.467 184.667 214.133 169.867 214.267 170.8C214.457 171.561 215.463 180.406 216.847 192.583C217.402 197.466 218.018 202.885 218.667 208.533C223.067 248.133 224.267 254 228 256C231.333 257.733 272 257.733 272 256C272 249.733 244.133 74.6667 242.667 72.1333C241.467 69.8667 231.867 82.1333 204.667 120.667C181.067 154 165.2 174.8 163.867 173.867C163.333 173.6 158.8 167.467 153.867 160.267C153.097 159.164 152.047 157.661 150.768 155.829Z" fill="#212A3B"/>
</svg>
